<svg width="10" height="17" viewBox="0 0 10 17" fill="none" xmlns="http://www.w3.org/2000/svg">
<path d="M6.86123 8.51366L0.424912 2.21419C0.296278 2.09954 0.192453 1.96079 0.119583 1.80617C0.046713 1.65154 0.00627889 1.48418 0.000674382 1.31399C-0.00493013 1.1438 0.0244089 0.974239 0.0869546 0.815344C0.1495 0.656448 0.243981 0.511448 0.364805 0.388929C0.485629 0.266409 0.630339 0.168861 0.790369 0.102056C0.9504 0.0352535 1.1225 0.000551175 1.29648 5.66538e-06C1.47045 -0.000539844 1.64277 0.0330829 1.80324 0.0988826C1.9637 0.164684 2.10905 0.261324 2.23067 0.383083L2.26235 0.414091L9.61914 7.61275C9.863 7.85147 10 8.17522 10 8.51279C10 8.85037 9.863 9.17412 9.61914 9.41284L2.26411 16.6115C2.14543 16.7317 2.00371 16.8279 1.84705 16.8945C1.69039 16.9612 1.52186 16.9969 1.35107 16.9998C1.18029 17.0027 1.01059 16.9726 0.851684 16.9113C0.692773 16.85 0.547756 16.7587 0.424912 16.6425C0.302069 16.5263 0.203805 16.3876 0.13573 16.2343C0.0676554 16.081 0.0311038 15.916 0.028162 15.7489C0.0252202 15.5817 0.0559459 15.4156 0.118585 15.2601C0.181224 15.1046 0.274549 14.9626 0.393232 14.8424L0.424912 14.8114L6.86123 8.51366Z" fill="#1B6AB3"/>
</svg>
