<svg width="26" height="25" viewBox="0 0 26 25" fill="none" xmlns="http://www.w3.org/2000/svg">
<path d="M13 10.7322L23.3661 0.366117C23.8543 -0.122039 24.6457 -0.122039 25.1339 0.366117C25.622 0.854272 25.622 1.64573 25.1339 2.13388L14.7678 12.5L25.1339 22.8661C25.622 23.3543 25.622 24.1457 25.1339 24.6339C24.6457 25.122 23.8543 25.122 23.3661 24.6339L13 14.2678L2.63388 24.6339C2.14573 25.122 1.35427 25.122 0.866117 24.6339C0.377961 24.1457 0.377961 23.3543 0.866117 22.8661L11.2322 12.5L0.866117 2.13388C0.377961 1.64573 0.377961 0.854272 0.866117 0.366117C1.35427 -0.122039 2.14573 -0.122039 2.63388 0.366117L13 10.7322Z" fill="#F5F0E2"/>
</svg>
