<svg width="104" height="35" viewBox="0 0 104 35" fill="none" xmlns="http://www.w3.org/2000/svg">
<path d="M0 20.0204V0.178772H4.52137C5.41141 0.178772 6.19464 0.286025 6.83546 0.464779C7.47629 0.643533 8.04591 0.96529 8.47313 1.35855C8.90034 1.75181 9.22076 2.28807 9.43436 2.89583C9.64797 3.50359 9.75478 4.25436 9.75478 5.11238C9.75478 5.93465 9.64797 6.64966 9.43436 7.22167C9.22076 7.82944 8.93594 8.2942 8.50873 8.61595C8.08151 8.97346 7.54749 9.18797 6.90667 9.25947C7.6899 9.43822 8.33072 9.75998 8.82914 10.189C9.32756 10.618 9.68357 11.19 9.89718 11.8693C10.1464 12.5485 10.2532 13.3708 10.2532 14.3003C10.2532 15.1583 10.1464 15.9091 9.96838 16.6241C9.79038 17.3391 9.46996 17.9112 9.04275 18.4117C8.61553 18.9122 8.11711 19.2697 7.47629 19.5557C6.83546 19.8417 6.08783 19.9489 5.1978 19.9489H0V20.0204ZM2.74131 8.47295H4.37897C5.1622 8.47295 5.76742 8.3657 6.19464 8.15119C6.62185 7.93669 6.94227 7.57918 7.12027 7.07867C7.29828 6.57816 7.40509 5.9704 7.40509 5.18388C7.40509 4.25436 7.26268 3.61085 6.97787 3.21759C6.69306 2.82433 6.26584 2.53832 5.69622 2.43107C5.1266 2.32382 4.34337 2.28807 3.41773 2.28807H2.77691V8.47295H2.74131ZM2.74131 18.0184H4.59258C5.83862 18.0184 6.65746 17.7324 7.04907 17.1604C7.47629 16.5884 7.65429 15.6589 7.65429 14.3718C7.65429 13.5496 7.54749 12.8345 7.33388 12.2625C7.12027 11.6905 6.76426 11.2615 6.30144 10.9755C5.83863 10.6895 5.1622 10.5465 4.37897 10.5465H2.74131V18.0184Z" fill="#1B6AB3"/>
<path d="M12.7812 20.0204V0.178772H20.4355V2.25232H15.5226V8.79471H19.5099V10.761H15.5226V18.0184H20.4711V19.9847H12.7812V20.0204Z" fill="#1B6AB3"/>
<path d="M24.8495 20.0204V2.25232H21.5029V0.178772H30.8305V2.25232H27.5908V20.0204H24.8495Z" fill="#1B6AB3"/>
<path d="M34.9247 20.0204V2.25232H31.5781V0.178772H40.9057V2.25232H37.666V20.0204H34.9247Z" fill="#1B6AB3"/>
<path d="M42.8281 20.0204V0.178772H50.4824V2.25232H45.5694V8.79471H49.5568V10.761H45.5694V18.0184H50.518V19.9847H42.8281V20.0204Z" fill="#1B6AB3"/>
<path d="M52.7256 20.0204V0.178772H56.7129C58.0302 0.178772 59.1338 0.357526 59.9883 0.715033C60.8427 1.07254 61.4835 1.64456 61.9107 2.39532C62.338 3.18184 62.516 4.18286 62.516 5.43414C62.516 6.1849 62.4448 6.89992 62.2668 7.54343C62.0887 8.18694 61.8395 8.68745 61.4835 9.15221C61.1275 9.58122 60.6647 9.90298 60.0595 10.0817L62.872 20.0204H60.2019L57.603 10.7252H55.4669V20.0204H52.7256ZM55.5025 8.72321H56.5349C57.3182 8.72321 57.959 8.61595 58.4218 8.4372C58.9202 8.22269 59.2762 7.90094 59.4898 7.43618C59.7035 6.97142 59.8459 6.29215 59.8459 5.46989C59.8459 4.32586 59.6323 3.46784 59.205 2.96733C58.7778 2.46682 57.959 2.18081 56.6773 2.18081H55.4669V8.72321H55.5025Z" fill="#1B6AB3"/>
<path d="M80.9568 0.178772L76.7558 19.9847H74.0857L69.8848 0.178772H72.4837L73.3737 5.18388H77.3967L78.3579 0.178772H80.9568ZM77.0762 7.15017H73.8009L75.4742 16.0879L77.0762 7.15017Z" fill="#1B6AB3"/>
<path d="M87.5798 20.2707C86.3338 20.2707 85.3725 20.0204 84.6249 19.4842C83.8773 18.9479 83.3432 18.1971 83.0228 17.1604C82.7024 16.1593 82.5244 14.9438 82.5244 13.5138V6.86415C82.5244 5.39837 82.6668 4.18284 82.9872 3.14607C83.272 2.1093 83.8061 1.35853 84.5893 0.822269C85.3725 0.286007 86.4406 0 87.829 0C89.0751 0 90.0719 0.214506 90.8195 0.607765C91.5672 1.03677 92.1368 1.64454 92.4572 2.50255C92.8132 3.36057 92.9556 4.43309 92.9556 5.75587V6.50664H90.3567V5.89888C90.3567 5.04086 90.2855 4.32584 90.1787 3.78958C90.0719 3.25332 89.8227 2.82431 89.4667 2.57406C89.1107 2.28805 88.5766 2.1808 87.829 2.1808C87.0102 2.1808 86.4406 2.35955 86.0489 2.75281C85.6929 3.11032 85.4437 3.64658 85.3725 4.29009C85.2657 4.93361 85.2301 5.64862 85.2301 6.47089V13.7998C85.2301 14.7293 85.3013 15.5516 85.4437 16.1593C85.5861 16.8029 85.8353 17.2676 86.227 17.5894C86.6186 17.9111 87.1526 18.0541 87.9002 18.0541C88.6122 18.0541 89.1819 17.8754 89.5735 17.5536C89.9651 17.1961 90.2143 16.6956 90.3923 16.0521C90.5347 15.3728 90.6059 14.5506 90.6059 13.5495V12.191H88.0782V10.2247H93.0624V20.0204H91.318L91.0331 17.7324C90.7839 18.4831 90.3567 19.0552 89.8227 19.5557C89.2887 20.0204 88.541 20.2707 87.5798 20.2707Z" fill="#1B6AB3"/>
<path d="M95.9102 20.0204V0.178772H103.564V2.25232H98.6515V8.79471H102.639V10.761H98.6515V18.0184H103.6V19.9847H95.9102V20.0204Z" fill="#1B6AB3"/>
<path d="M78.9992 31.4249C78.9992 33.3912 77.3971 35 75.439 35C73.481 35 71.8789 33.3912 71.8789 31.4249C71.8789 29.4586 75.439 24.239 75.439 24.239C75.439 24.239 78.9992 29.4229 78.9992 31.4249Z" fill="#1B6AB3"/>
</svg>
