<svg width="11" height="18" viewBox="0 0 11 18" fill="none" xmlns="http://www.w3.org/2000/svg">
<path d="M8.8 0C9.95983 0 10.91 0.917862 10.994 2.08208L11 2.25V15.75C11 16.9362 10.1026 17.9079 8.96419 17.9938L8.8 18H2.2C1.0402 18 0.0900181 17.0822 0.00603409 15.9179L0 15.75V2.25C0 1.06384 0.897465 0.0920642 2.03581 0.00617149L2.2 0H8.8ZM8.8 1.125H2.2C1.63589 1.125 1.17094 1.5593 1.1074 2.1188L1.1 2.25V15.75C1.1 16.327 1.52465 16.8024 2.07172 16.8674L2.2 16.875H8.8C9.36413 16.875 9.82906 16.4407 9.8926 15.8812L9.9 15.75V2.25C9.9 1.67306 9.47537 1.19756 8.92829 1.13257L8.8 1.125ZM6.6 13.5C6.90371 13.5 7.15 13.7519 7.15 14.0625C7.15 14.3386 6.9554 14.5683 6.69885 14.6159L6.6 14.625H4.4C4.09625 14.625 3.85 14.3731 3.85 14.0625C3.85 13.7864 4.04456 13.5567 4.30114 13.5091L4.4 13.5H6.6Z" fill="#F5F0E2"/>
</svg>
