<svg width="22" height="22" viewBox="0 0 22 22" fill="none" xmlns="http://www.w3.org/2000/svg">
<path d="M14.8475 21H19.7097C20.4223 21 21 20.4223 21 19.7097V2.29032C21 1.57768 20.4223 1 19.7097 1H2.29032C1.57768 1 1 1.57768 1 2.29032V19.7097C1 20.4223 1.57768 21 2.29032 21H11.6808" stroke="#F5F0E2" stroke-width="1.4" stroke-miterlimit="10"/>
<path d="M14.8475 21.0005V13.0837H17.6976L18.0143 9.91695H14.8475V8.01691C14.8475 6.75023 15.7975 6.75023 16.1142 6.75023C16.4309 6.75023 18.0143 6.75023 18.0143 6.75023V3.90019C16.7344 3.77047 11.6808 2.63351 11.6808 8.01691V9.91695H9.14746V13.0837H11.6808V21.0005" stroke="#F5F0E2" stroke-width="1.4" stroke-miterlimit="10" stroke-linecap="round" stroke-linejoin="round"/>
</svg>
