<svg width="20" height="20" viewBox="0 0 20 20" fill="none" xmlns="http://www.w3.org/2000/svg">
<path d="M10 0C12.7219 0 13.0572 0.0197239 14.1223 0.0591716C15.1677 0.0986193 15.8974 0.276134 16.5483 0.532544C17.2189 0.788955 17.7712 1.12426 18.3235 1.67653C18.8757 2.2288 19.211 2.78107 19.4675 3.45168C19.7239 4.10256 19.9014 4.83235 19.9408 5.87771C19.9803 6.9428 20 7.27811 20 10C20 12.7219 19.9803 13.0572 19.9408 14.1223C19.9014 15.1677 19.7239 15.8974 19.4675 16.5483C19.211 17.2189 18.8757 17.7712 18.3235 18.3235C17.7712 18.8757 17.2189 19.211 16.5483 19.4675C15.8974 19.7239 15.1677 19.9014 14.1223 19.9408C13.0572 19.9803 12.7219 20 10 20C7.27811 20 6.9428 19.9803 5.87771 19.9408C4.83235 19.9014 4.10256 19.7239 3.45168 19.4675C2.78107 19.211 2.2288 18.8757 1.67653 18.3235C1.12426 17.7712 0.788955 17.2189 0.532544 16.5483C0.276134 15.8974 0.0986193 15.1677 0.0591716 14.1223C0.0197239 13.0572 0 12.7219 0 10C0 7.27811 0.0197239 6.9428 0.0591716 5.87771C0.0986193 4.83235 0.276134 4.10256 0.532544 3.45168C0.788955 2.78107 1.12426 2.2288 1.67653 1.67653C2.2288 1.12426 2.78107 0.788955 3.45168 0.532544C4.10256 0.276134 4.83235 0.0986193 5.87771 0.0591716C6.9428 0.0197239 7.27811 0 10 0ZM10 1.30178C7.15976 1.30178 6.82446 1.3215 5.71992 1.36095C4.69428 1.40039 4.12229 1.59763 3.74753 1.7357C2.78107 2.13018 2.13018 2.78107 1.7357 3.74753C1.59763 4.12229 1.40039 4.69428 1.36095 5.71992C1.3215 6.82446 1.30178 7.15976 1.30178 10C1.30178 12.8402 1.3215 13.1755 1.36095 14.2801C1.40039 15.3057 1.59763 15.8777 1.7357 16.2525C2.13018 17.2189 2.78107 17.8698 3.74753 18.2643C4.12229 18.4024 4.69428 18.5996 5.71992 18.6391C6.82446 18.6785 7.15976 18.6982 10 18.6982C12.8402 18.6982 13.1755 18.6785 14.2801 18.6391C15.3057 18.5996 15.8777 18.4024 16.2525 18.2643C17.2189 17.8698 17.8698 17.2189 18.2643 16.2525C18.4024 15.8777 18.5996 15.3057 18.6391 14.2801C18.6785 13.1755 18.6982 12.8402 18.6982 10C18.6982 7.15976 18.6785 6.82446 18.6391 5.71992C18.5996 4.69428 18.4024 4.12229 18.2643 3.74753C17.8698 2.78107 17.2189 2.13018 16.2525 1.7357C15.8777 1.59763 15.3057 1.40039 14.2801 1.36095C13.1755 1.3215 12.8402 1.30178 10 1.30178ZM10 14.0039C12.2091 14.0039 14.0039 12.2091 14.0039 10C14.0039 7.79093 12.2091 5.99606 10 5.99606C7.79093 5.99606 5.99606 7.79093 5.99606 10C5.99606 12.2091 7.79093 14.0039 10 14.0039ZM10 4.87179C12.8402 4.87179 15.1282 7.15976 15.1282 10C15.1282 12.8402 12.8402 15.1282 10 15.1282C7.15976 15.1282 4.87179 12.8402 4.87179 10C4.87179 7.15976 7.15976 4.87179 10 4.87179ZM16.5483 4.67456C16.5483 5.34517 15.9961 5.85799 15.3254 5.85799C14.6548 5.85799 14.142 5.34517 14.142 4.67456C14.142 4.00394 14.6548 3.45168 15.3254 3.45168C15.9961 3.45168 16.5483 4.00394 16.5483 4.67456Z" fill="#F5F0E2"/>
</svg>
