<svg width="14" height="18" viewBox="0 0 14 18" fill="none" xmlns="http://www.w3.org/2000/svg">
<path d="M7.06679 0C3.24042 0 0 3.14241 0 6.86503C0 10.7632 3.75579 14.7496 6.28221 17.5514C6.29183 17.5627 6.70018 18 7.20329 18H7.24793C7.75106 18 8.15648 17.5627 8.16667 17.5514C10.5376 14.9231 14 10.5896 14 6.86503C14 3.14241 11.4724 0 7.06679 0ZM7.30071 16.7968C7.28029 16.8165 7.25052 16.8385 7.22427 16.8567C7.19744 16.839 7.16827 16.8165 7.14671 16.7968L6.84161 16.4585C4.44646 13.8088 1.16667 10.1804 1.16667 6.86503C1.16667 3.75356 3.86867 1.12472 7.06679 1.12472C11.0504 1.12472 12.8333 4.00753 12.8333 6.86503C12.8333 9.38194 10.9716 12.7238 7.30071 16.7968ZM7.0204 3.40622C5.08752 3.40622 3.5204 4.91738 3.5204 6.78122C3.5204 8.64506 5.08752 10.1562 7.0204 10.1562C8.95327 10.1562 10.5204 8.64506 10.5204 6.78122C10.5204 4.91738 8.95327 3.40622 7.0204 3.40622ZM7.0204 9.03122C5.73386 9.03122 4.66021 7.99734 4.66021 6.75647C4.66021 5.51588 5.70701 4.50647 6.99355 4.50647C8.28096 4.50647 9.32688 5.51588 9.32688 6.75647C9.32746 7.99734 8.30782 9.03122 7.0204 9.03122Z" fill="#F5F0E2"/>
</svg>
