<svg aria-hidden="true" style="position: absolute; width: 0; height: 0; overflow: hidden;" version="1.1" xmlns="http://www.w3.org/2000/svg" xmlns:xlink="http://www.w3.org/1999/xlink">
<defs>
<symbol id="icon-before-after-arrow-right-mob" viewBox="0 0 204 32">
<path fill="#1b6ab3" style="fill: var(--color1, #1b6ab3)" d="M201.414 17.414c0.781-0.781 0.781-2.047 0-2.828l-12.728-12.728c-0.781-0.781-2.048-0.781-2.828 0s-0.781 2.047 0 2.828l11.314 11.314-11.314 11.314c-0.781 0.781-0.781 2.047 0 2.828s2.047 0.781 2.828 0l12.728-12.728zM0 18h200v-4h-200v4z"></path>
</symbol>
<symbol id="icon-beauty-treatment-icon" viewBox="0 0 29 32">
<path fill="#1b6ab3" style="fill: var(--color1, #1b6ab3)" d="M29.091 16l-28.364 13.856v-27.713l28.364 13.856z"></path>
</symbol>
<symbol id="icon-beauty-treatment-icon-beige" viewBox="0 0 29 32">
<path fill="#f5f0e2" style="fill: var(--color2, #f5f0e2)" d="M29.091 16l-28.364 13.856v-27.713l28.364 13.856z"></path>
</symbol>
<symbol id="icon-before-after-arrow-left" viewBox="0 0 292 32">
<path fill="#1b6ab3" style="fill: var(--color1, #1b6ab3)" d="M2.586 17.414c-0.781-0.781-0.781-2.047 0-2.828l12.728-12.728c0.781-0.781 2.047-0.781 2.828 0s0.781 2.047 0 2.828l-11.314 11.314 11.314 11.314c0.781 0.781 0.781 2.047 0 2.828s-2.047 0.781-2.828 0l-12.728-12.728zM292 18h-288v-4h288v4z"></path>
</symbol>
<symbol id="icon-before-after-arrow-left-mob" viewBox="0 0 204 32">
<path fill="#1b6ab3" style="fill: var(--color1, #1b6ab3)" d="M2.586 17.414c-0.781-0.781-0.781-2.047 0-2.828l12.728-12.728c0.781-0.781 2.047-0.781 2.828 0s0.781 2.047 0 2.828l-11.314 11.314 11.314 11.314c0.781 0.781 0.781 2.047 0 2.828s-2.047 0.781-2.828 0l-12.728-12.728zM204 18h-200v-4h200v4z"></path>
</symbol>
<symbol id="icon-before-after-arrow-right" viewBox="0 0 292 32">
<path fill="#1b6ab3" style="fill: var(--color1, #1b6ab3)" d="M289.414 17.414c0.781-0.781 0.781-2.047 0-2.828l-12.728-12.728c-0.781-0.781-2.048-0.781-2.828 0s-0.781 2.047 0 2.828l11.314 11.314-11.314 11.314c-0.781 0.781-0.781 2.047 0 2.828s2.047 0.781 2.828 0l12.728-12.728zM0 18h288v-4h-288v4z"></path>
</symbol>
<symbol id="icon-btn-back-icon" viewBox="0 0 20 32">
<path fill="none" stroke="#8abde2" style="stroke: var(--color3, #8abde2)" stroke-linejoin="miter" stroke-linecap="round" stroke-miterlimit="4" stroke-width="3.4" d="M18 2l-14 14 14 14"></path>
</symbol>
<symbol id="icon-logo" viewBox="0 0 95 32">
<path fill="#1b6ab3" style="fill: var(--color1, #1b6ab3)" d="M0 18.304v-18.141h4.134c0.814 0 1.53 0.098 2.116 0.262s1.107 0.458 1.497 0.817c0.391 0.36 0.684 0.85 0.879 1.405s0.293 1.242 0.293 2.027c0 0.752-0.098 1.405-0.293 1.929-0.195 0.556-0.456 0.981-0.846 1.275-0.391 0.327-0.879 0.523-1.465 0.588 0.716 0.163 1.302 0.458 1.758 0.85s0.781 0.915 0.976 1.536c0.228 0.621 0.325 1.373 0.325 2.223 0 0.784-0.098 1.471-0.26 2.125s-0.456 1.177-0.846 1.634c-0.391 0.458-0.846 0.784-1.432 1.046s-1.269 0.36-2.083 0.36h-4.752v0.065zM2.506 7.747h1.497c0.716 0 1.269-0.098 1.66-0.294s0.684-0.523 0.846-0.981c0.163-0.458 0.26-1.013 0.26-1.732 0-0.85-0.13-1.438-0.391-1.798s-0.651-0.621-1.172-0.719c-0.521-0.098-1.237-0.131-2.083-0.131h-0.586v5.655h-0.033zM2.506 16.474h1.693c1.139 0 1.888-0.262 2.246-0.784 0.391-0.523 0.553-1.373 0.553-2.55 0-0.752-0.098-1.406-0.293-1.928s-0.521-0.915-0.944-1.177c-0.423-0.261-1.042-0.392-1.758-0.392h-1.497v6.831z"></path>
<path fill="#1b6ab3" style="fill: var(--color1, #1b6ab3)" d="M11.686 18.304v-18.141h6.998v1.896h-4.492v5.982h3.646v1.798h-3.646v6.635h4.524v1.798h-7.031v0.033z"></path>
<path fill="#1b6ab3" style="fill: var(--color1, #1b6ab3)" d="M22.72 18.304v-16.245h-3.060v-1.896h8.528v1.896h-2.962v16.245h-2.506z"></path>
<path fill="#1b6ab3" style="fill: var(--color1, #1b6ab3)" d="M31.931 18.304v-16.245h-3.060v-1.896h8.528v1.896h-2.962v16.245h-2.506z"></path>
<path fill="#1b6ab3" style="fill: var(--color1, #1b6ab3)" d="M39.157 18.304v-18.141h6.998v1.896h-4.492v5.982h3.646v1.798h-3.646v6.635h4.524v1.798h-7.031v0.033z"></path>
<path fill="#1b6ab3" style="fill: var(--color1, #1b6ab3)" d="M48.206 18.304v-18.141h3.646c1.204 0 2.213 0.163 2.995 0.49s1.367 0.85 1.758 1.536c0.391 0.719 0.553 1.634 0.553 2.778 0 0.686-0.065 1.34-0.228 1.928s-0.391 1.046-0.716 1.471c-0.325 0.392-0.749 0.686-1.302 0.85l2.571 9.087h-2.441l-2.376-8.498h-1.953v8.498h-2.506zM50.745 7.976h0.944c0.716 0 1.302-0.098 1.725-0.261 0.456-0.196 0.781-0.49 0.976-0.915s0.326-1.046 0.326-1.798c0-1.046-0.195-1.83-0.586-2.288s-1.139-0.719-2.311-0.719h-1.107v5.982h0.033z"></path>
<path fill="#1b6ab3" style="fill: var(--color1, #1b6ab3)" d="M74.018 0.163l-3.841 18.108h-2.441l-3.841-18.108h2.376l0.814 4.576h3.678l0.879-4.576h2.376zM70.47 6.537h-2.995l1.53 8.172 1.465-8.172z"></path>
<path fill="#1b6ab3" style="fill: var(--color1, #1b6ab3)" d="M80.073 18.533c-1.139 0-2.018-0.229-2.702-0.719s-1.172-1.177-1.465-2.125c-0.293-0.915-0.456-2.027-0.456-3.334v-6.080c0-1.34 0.13-2.451 0.423-3.399 0.26-0.948 0.749-1.634 1.465-2.125s1.693-0.752 2.962-0.752c1.139 0 2.051 0.196 2.734 0.556 0.684 0.392 1.204 0.948 1.497 1.732 0.326 0.784 0.456 1.765 0.456 2.974v0.686h-2.376v-0.556c0-0.784-0.065-1.438-0.163-1.929s-0.326-0.883-0.651-1.111c-0.326-0.261-0.814-0.36-1.497-0.36-0.749 0-1.269 0.163-1.628 0.523-0.326 0.327-0.553 0.817-0.618 1.405-0.098 0.588-0.13 1.242-0.13 1.994v6.701c0 0.85 0.065 1.602 0.195 2.157 0.13 0.588 0.358 1.013 0.716 1.308s0.846 0.425 1.53 0.425c0.651 0 1.172-0.163 1.53-0.458 0.358-0.327 0.586-0.784 0.749-1.373 0.13-0.621 0.195-1.373 0.195-2.288v-1.242h-2.311v-1.798h4.557v8.956h-1.595l-0.26-2.092c-0.228 0.686-0.618 1.209-1.107 1.667-0.488 0.425-1.172 0.654-2.051 0.654z"></path>
<path fill="#1b6ab3" style="fill: var(--color1, #1b6ab3)" d="M87.689 18.304v-18.141h6.998v1.896h-4.491v5.982h3.646v1.798h-3.646v6.635h4.524v1.798h-7.031v0.033z"></path>
<path fill="#1b6ab3" style="fill: var(--color1, #1b6ab3)" d="M72.228 28.731c0 1.798-1.465 3.269-3.255 3.269s-3.255-1.471-3.255-3.269 3.255-6.57 3.255-6.57c0 0 3.255 4.74 3.255 6.57z"></path>
</symbol>
<symbol id="icon-menu-icon" viewBox="0 0 96 32">
<path fill="#1b6ab3" style="fill: var(--color1, #1b6ab3)" d="M0 0h96v6.4h-96v-6.4z"></path>
<path fill="#1b6ab3" style="fill: var(--color1, #1b6ab3)" d="M0 25.6h96v6.4h-96v-6.4z"></path>
</symbol>
<symbol id="icon-menu-icon-close" viewBox="0 0 32 32">
<path fill="#f5f0e2" style="fill: var(--color2, #f5f0e2)" d="M16 13.737l13.269-13.269c0.625-0.625 1.638-0.625 2.263 0s0.625 1.638 0 2.263l-13.269 13.269 13.269 13.269c0.625 0.625 0.625 1.638 0 2.263s-1.638 0.625-2.263 0l-13.269-13.269-13.269 13.269c-0.625 0.625-1.638 0.625-2.263 0s-0.625-1.638 0-2.263l13.269-13.269-13.269-13.269c-0.625-0.625-0.625-1.638 0-2.263s1.638-0.625 2.263 0l13.269 13.269z"></path>
</symbol>
<symbol id="icon-see-all-arrow" viewBox="0 0 92 32">
<path fill="#1b6ab3" style="fill: var(--color1, #1b6ab3)" d="M89.414 17.414c0.781-0.781 0.781-2.047 0-2.828l-12.728-12.728c-0.781-0.781-2.048-0.781-2.828 0s-0.781 2.047 0 2.828l11.314 11.314-11.314 11.314c-0.781 0.781-0.781 2.047 0 2.828s2.047 0.781 2.828 0l12.728-12.728zM0 18h44v-4h-44v4zM44 18h44v-4h-44v4z"></path>
</symbol>
<symbol id="icon-slider-dot" viewBox="0 0 32 32">
<path fill="#1b6ab3" style="fill: var(--color1, #1b6ab3); stroke: var(--color1, #1b6ab3)" stroke="#1b6ab3" stroke-linejoin="miter" stroke-linecap="butt" stroke-miterlimit="4" stroke-width="6.4" d="M28.8 16c0 7.069-5.731 12.8-12.8 12.8s-12.8-5.731-12.8-12.8c0-7.069 5.731-12.8 12.8-12.8s12.8 5.731 12.8 12.8z"></path>
</symbol>
<symbol id="icon-slider-dot-active" viewBox="0 0 32 32">
<path fill="none" stroke="#1b6ab3" style="stroke: var(--color1, #1b6ab3)" stroke-linejoin="miter" stroke-linecap="butt" stroke-miterlimit="4" stroke-width="4.5714" d="M29.714 16c0 7.574-6.14 13.714-13.714 13.714s-13.714-6.14-13.714-13.714c0-7.574 6.14-13.714 13.714-13.714s13.714 6.14 13.714 13.714z"></path>
</symbol>
<symbol id="icon-facebook" viewBox="0 0 32 32">
<path fill="none" stroke="#f5f0e2" style="stroke: var(--color2, #f5f0e2)" stroke-linejoin="miter" stroke-linecap="butt" stroke-miterlimit="10" stroke-width="2.0364" d="M21.596 30.545h7.072c1.037 0 1.877-0.84 1.877-1.877v-25.337c0-1.037-0.84-1.877-1.877-1.877h-25.337c-1.037 0-1.877 0.84-1.877 1.877v25.337c0 1.037 0.84 1.877 1.877 1.877h13.659"></path>
<path fill="none" stroke="#f5f0e2" style="stroke: var(--color2, #f5f0e2)" stroke-linejoin="round" stroke-linecap="round" stroke-miterlimit="10" stroke-width="2.0364" d="M21.596 30.546v-11.515h4.146l0.461-4.606h-4.606v-2.764c0-1.842 1.382-1.842 1.842-1.842s2.764 0 2.764 0v-4.146c-1.862-0.189-9.212-1.842-9.212 5.988v2.764h-3.685v4.606h3.685v11.515"></path>
</symbol>
<symbol id="icon-basic-mail" viewBox="0 0 42 32">
<path fill="none" stroke="#f5f0e2" style="stroke: var(--color2, #f5f0e2)" stroke-linejoin="miter" stroke-linecap="butt" stroke-miterlimit="10" stroke-width="2" d="M2 4c0-1.105 0.895-2 2-2h34c1.105 0 2 0.895 2 2v24c0 1.105-0.895 2-2 2h-34c-1.105 0-2-0.895-2-2v-24z"></path>
<path fill="none" stroke="#f5f0e2" style="stroke: var(--color2, #f5f0e2)" stroke-linejoin="miter" stroke-linecap="butt" stroke-miterlimit="10" stroke-width="2" d="M2 2l17.754 14.142c0.729 0.581 1.763 0.581 2.492 0l17.754-14.142"></path>
</symbol>
<symbol id="icon-clock" viewBox="0 0 32 32">
<path fill="#f5f0e2" style="fill: var(--color2, #f5f0e2)" d="M16 30c3.713 0 7.274-1.475 9.9-4.1s4.1-6.186 4.1-9.9c0-3.713-1.475-7.274-4.1-9.899s-6.186-4.101-9.9-4.101c-3.713 0-7.274 1.475-9.899 4.101s-4.101 6.186-4.101 9.899c0 3.713 1.475 7.274 4.101 9.9s6.186 4.1 9.899 4.1zM32 16c0 4.243-1.686 8.313-4.686 11.314s-7.070 4.686-11.314 4.686c-4.243 0-8.313-1.686-11.314-4.686s-4.686-7.070-4.686-11.314c0-4.243 1.686-8.313 4.686-11.314s7.070-4.686 11.314-4.686c4.243 0 8.313 1.686 11.314 4.686s4.686 7.070 4.686 11.314z"></path>
<path fill="#f5f0e2" style="fill: var(--color2, #f5f0e2)" d="M15 6c0.265 0 0.52 0.105 0.707 0.293s0.293 0.442 0.293 0.707v10.42l6.496 3.712c0.224 0.135 0.386 0.352 0.451 0.605s0.030 0.521-0.1 0.748c-0.129 0.227-0.343 0.394-0.594 0.465s-0.52 0.042-0.75-0.082l-7-4c-0.153-0.087-0.28-0.214-0.369-0.366s-0.135-0.326-0.135-0.502v-11c0-0.265 0.105-0.52 0.293-0.707s0.442-0.293 0.707-0.293z"></path>
</symbol>
<symbol id="icon-location-pin" viewBox="0 0 25 32">
<path fill="#f5f0e2" style="fill: var(--color2, #f5f0e2)" d="M12.563 0c-6.802 0-12.563 5.587-12.563 12.204 0 6.93 6.677 14.017 11.168 18.998 0.017 0.020 0.743 0.797 1.637 0.797h0.079c0.894 0 1.615-0.777 1.633-0.797 4.215-4.673 10.37-12.377 10.37-18.998 0-6.618-4.494-12.204-12.326-12.204zM12.979 29.861c-0.036 0.035-0.089 0.074-0.136 0.107-0.048-0.031-0.1-0.071-0.138-0.107l-0.542-0.601c-4.258-4.711-10.089-11.161-10.089-17.055 0-5.532 4.804-10.205 10.489-10.205 7.082 0 10.252 5.125 10.252 10.205 0 4.474-3.31 10.416-9.836 17.656zM12.481 6.056c-3.436 0-6.222 2.687-6.222 6s2.786 6 6.222 6c3.436 0 6.222-2.686 6.222-6s-2.786-6-6.222-6zM12.481 16.055c-2.287 0-4.196-1.838-4.196-4.044s1.861-4 4.148-4c2.289 0 4.148 1.794 4.148 4 0.001 2.206-1.812 4.044-4.1 4.044z"></path>
</symbol>
<symbol id="icon-phone-mob" viewBox="0 0 20 32">
<path fill="#f5f0e2" style="fill: var(--color2, #f5f0e2)" d="M15.644 0c2.062 0 3.751 1.632 3.9 3.701l0.011 0.299v24c0 2.109-1.595 3.836-3.619 3.989l-0.292 0.011h-11.733c-2.062 0-3.751-1.632-3.9-3.701l-0.011-0.299v-24c0-2.109 1.595-3.836 3.619-3.989l0.292-0.011h11.733zM15.644 2h-11.733c-1.003 0-1.829 0.772-1.942 1.767l-0.013 0.233v24c0 1.026 0.755 1.871 1.727 1.986l0.228 0.014h11.733c1.003 0 1.829-0.772 1.942-1.767l0.013-0.233v-24c0-1.026-0.755-1.871-1.727-1.987l-0.228-0.013zM11.733 24c0.54 0 0.978 0.448 0.978 1 0 0.491-0.346 0.899-0.802 0.984l-0.176 0.016h-3.911c-0.54 0-0.978-0.448-0.978-1 0-0.491 0.346-0.899 0.802-0.984l0.176-0.016h3.911z"></path>
</symbol>
<symbol id="icon-social-instagram" viewBox="0 0 32 32">
<path fill="#f5f0e2" style="fill: var(--color2, #f5f0e2)" d="M16 0c4.355 0 4.892 0.032 6.596 0.095 1.673 0.063 2.84 0.347 3.882 0.757 1.073 0.41 1.957 0.947 2.84 1.83s1.42 1.767 1.83 2.84c0.41 1.041 0.694 2.209 0.757 3.882 0.063 1.704 0.095 2.241 0.095 6.596s-0.032 4.892-0.095 6.596c-0.063 1.673-0.347 2.84-0.757 3.882-0.41 1.073-0.947 1.957-1.83 2.84s-1.767 1.42-2.84 1.83c-1.041 0.41-2.209 0.694-3.882 0.757-1.704 0.063-2.241 0.095-6.596 0.095s-4.892-0.032-6.596-0.095c-1.673-0.063-2.84-0.347-3.882-0.757-1.073-0.41-1.957-0.947-2.84-1.83s-1.42-1.767-1.83-2.84c-0.41-1.041-0.694-2.209-0.757-3.882-0.063-1.704-0.095-2.241-0.095-6.596s0.032-4.892 0.095-6.596c0.063-1.673 0.347-2.84 0.757-3.882 0.41-1.073 0.947-1.957 1.83-2.84s1.767-1.42 2.84-1.83c1.041-0.41 2.209-0.694 3.882-0.757 1.704-0.063 2.241-0.095 6.596-0.095zM16 2.083c-4.544 0-5.081 0.032-6.848 0.095-1.641 0.063-2.556 0.379-3.156 0.6-1.546 0.631-2.588 1.673-3.219 3.219-0.221 0.6-0.537 1.515-0.6 3.156-0.063 1.767-0.095 2.304-0.095 6.848s0.032 5.081 0.095 6.848c0.063 1.641 0.379 2.556 0.6 3.156 0.631 1.546 1.673 2.588 3.219 3.219 0.6 0.221 1.515 0.536 3.156 0.6 1.767 0.063 2.304 0.095 6.848 0.095s5.081-0.032 6.848-0.095c1.641-0.063 2.556-0.379 3.156-0.6 1.546-0.631 2.588-1.673 3.219-3.219 0.221-0.6 0.536-1.515 0.6-3.156 0.063-1.767 0.095-2.304 0.095-6.848s-0.032-5.081-0.095-6.848c-0.063-1.641-0.379-2.556-0.6-3.156-0.631-1.546-1.673-2.588-3.219-3.219-0.6-0.221-1.515-0.537-3.156-0.6-1.767-0.063-2.304-0.095-6.848-0.095zM16 22.406c3.535 0 6.406-2.872 6.406-6.406s-2.872-6.406-6.406-6.406c-3.534 0-6.406 2.872-6.406 6.406s2.872 6.406 6.406 6.406zM16 7.795c4.544 0 8.205 3.661 8.205 8.205s-3.661 8.205-8.205 8.205c-4.544 0-8.205-3.661-8.205-8.205s3.661-8.205 8.205-8.205zM26.477 7.479c0 1.073-0.884 1.893-1.957 1.893s-1.893-0.82-1.893-1.893 0.82-1.957 1.893-1.957c1.073 0 1.957 0.884 1.957 1.957z"></path>
</symbol>
</defs>
</svg>
