<svg aria-hidden="true" style="position: absolute; width: 0; height: 0; overflow: hidden;" version="1.1" xmlns="http://www.w3.org/2000/svg" xmlns:xlink="http://www.w3.org/1999/xlink">
<defs>
<symbol id="icon-main-header-line" viewBox="0 0 155 32">
<path fill="#f5f0e2" style="fill: var(--color2, #f5f0e2)" d="M16 0c4.355 0 4.892 0.032 6.596 0.095 1.673 0.063 2.84 0.347 3.882 0.757 1.073 0.41 1.957 0.947 2.84 1.83s1.42 1.767 1.83 2.84c0.41 1.041 0.694 2.209 0.757 3.882 0.063 1.704 0.095 2.241 0.095 6.596s-0.032 4.892-0.095 6.596c-0.063 1.673-0.347 2.84-0.757 3.882-0.41 1.073-0.947 1.957-1.83 2.84s-1.767 1.42-2.84 1.83c-1.041 0.41-2.209 0.694-3.882 0.757-1.704 0.063-2.241 0.095-6.596 0.095s-4.892-0.032-6.596-0.095c-1.673-0.063-2.84-0.347-3.882-0.757-1.073-0.41-1.957-0.947-2.84-1.83s-1.42-1.767-1.83-2.84c-0.41-1.041-0.694-2.209-0.757-3.882-0.063-1.704-0.095-2.241-0.095-6.596s0.032-4.892 0.095-6.596c0.063-1.673 0.347-2.84 0.757-3.882 0.41-1.073 0.947-1.957 1.83-2.84s1.767-1.42 2.84-1.83c1.041-0.41 2.209-0.694 3.882-0.757 1.704-0.063 2.241-0.095 6.596-0.095zM16 2.083c-4.544 0-5.081 0.032-6.848 0.095-1.641 0.063-2.556 0.379-3.156 0.6-1.546 0.631-2.588 1.673-3.219 3.219-0.221 0.6-0.537 1.515-0.6 3.156-0.063 1.767-0.095 2.304-0.095 6.848s0.032 5.081 0.095 6.848c0.063 1.641 0.379 2.556 0.6 3.156 0.631 1.546 1.673 2.588 3.219 3.219 0.6 0.221 1.515 0.536 3.156 0.6 1.767 0.063 2.304 0.095 6.848 0.095s5.081-0.032 6.848-0.095c1.641-0.063 2.556-0.379 3.156-0.6 1.546-0.631 2.588-1.673 3.219-3.219 0.221-0.6 0.536-1.515 0.6-3.156 0.063-1.767 0.095-2.304 0.095-6.848s-0.032-5.081-0.095-6.848c-0.063-1.641-0.379-2.556-0.6-3.156-0.631-1.546-1.673-2.588-3.219-3.219-0.6-0.221-1.515-0.537-3.156-0.6-1.767-0.063-2.304-0.095-6.848-0.095zM16 22.406c3.535 0 6.406-2.872 6.406-6.406s-2.872-6.406-6.406-6.406c-3.534 0-6.406 2.872-6.406 6.406s2.872 6.406 6.406 6.406zM16 7.795c4.544 0 8.205 3.661 8.205 8.205s-3.661 8.205-8.205 8.205c-4.544 0-8.205-3.661-8.205-8.205s3.661-8.205 8.205-8.205zM26.477 7.479c0 1.073-0.884 1.893-1.957 1.893s-1.893-0.82-1.893-1.893 0.82-1.957 1.893-1.957c1.073 0 1.957 0.884 1.957 1.957z"></path>
</symbol>
</defs>
</svg>
